<?xml version="1.0" encoding="utf-8"?>
<svg width="21px" height="10px" viewBox="0 0 21 10" version="1.1" xmlns:xlink="http://www.w3.org/1999/xlink" xmlns="http://www.w3.org/2000/svg">
  <desc>Created with Lunacy</desc>
  <path d="M0.454669 6.31004C0.571036 6.31004 0.687402 6.25859 0.77604 6.15621L4.55476 1.79175L4.55476 20.475C4.55476 20.7653 4.75795 21 5.00932 21C5.26069 21 5.46387 20.7653 5.46387 20.475L5.46387 1.79175L9.22396 6.13469C9.40169 6.33997 9.68897 6.33997 9.8667 6.13469C10.0444 5.9294 10.0444 5.59759 9.8667 5.39231L5.33114 0.153699C5.28932 0.104872 5.23887 0.0665458 5.1825 0.03977C5.07159 -0.0132567 4.94659 -0.0132567 4.83522 0.03977C4.77931 0.0665458 4.72886 0.105397 4.68704 0.153699L0.133298 5.41384C-0.0444328 5.61912 -0.0444328 5.95093 0.133298 6.15621C0.221937 6.25911 0.338303 6.31004 0.454669 6.31004Z" transform="matrix(-4.371139E-08 1 -1 -4.371139E-08 21 0)" id="Path" fill="#ffffff" stroke="none" />
</svg>