<?xml version="1.0" encoding="utf-8"?>
<svg width="14px" height="11px" viewBox="0 0 14 11" version="1.1" xmlns:xlink="http://www.w3.org/1999/xlink" xmlns="http://www.w3.org/2000/svg">
  <desc>Created with Lunacy</desc>
  <g id="envelope">
    <path d="M1.34372 3.12994C1.52082 3.24531 2.05466 3.58793 2.94527 4.15765C3.8359 4.72736 4.51819 5.16603 4.99216 5.47367C5.04423 5.50739 5.15486 5.5807 5.32411 5.69368C5.49338 5.80675 5.63403 5.89811 5.74595 5.96781C5.85795 6.03747 5.99334 6.11563 6.15227 6.20214C6.31115 6.28858 6.46091 6.3536 6.60153 6.39665C6.74218 6.44004 6.87238 6.46154 6.99215 6.46154L7 6.46154L7.00788 6.46154C7.12765 6.46154 7.2579 6.44002 7.39855 6.39665C7.53912 6.3536 7.68902 6.28851 7.84776 6.20214C8.00657 6.11553 8.14197 6.03745 8.25397 5.96781C8.36597 5.89811 8.50651 5.80675 8.67584 5.69368C8.84505 5.5806 8.95582 5.50739 9.0079 5.47367C9.48698 5.16603 10.7058 4.38471 12.6641 3.12979C13.0443 2.88469 13.3619 2.58895 13.6171 2.24276C13.8725 1.89672 14 1.53371 14 1.15393C14 0.836561 13.8762 0.56489 13.6288 0.338939C13.3814 0.112938 13.0884 0 12.75 0L1.24995 0C0.848933 0 0.540324 0.124987 0.324178 0.37496C0.108059 0.624983 0 0.9375 0 1.31249C0 1.61538 0.143277 1.94361 0.429693 2.29697C0.716082 2.65036 1.02086 2.92804 1.34372 3.12994Z" id="Shape" fill="#B4D3D3" stroke="none" />
    <path d="M13.2186 0.589237C11.5105 1.59157 10.2134 2.37054 9.32814 2.926C9.03127 3.11557 8.79045 3.26355 8.6055 3.3696C8.42054 3.47571 8.17457 3.58408 7.86722 3.69465C7.55998 3.80539 7.27365 3.8606 7.00798 3.8606L7.00001 3.8606L6.99216 3.8606C6.72654 3.8606 6.44004 3.80539 6.1328 3.69465C5.82556 3.58408 5.57943 3.47571 5.39453 3.3696C5.20969 3.26355 4.96878 3.11557 4.67194 2.926C3.96877 2.479 2.67453 1.69998 0.789141 0.589237C0.492191 0.417766 0.229171 0.221219 0 0L0 5.3777C0 5.6759 0.122343 5.9309 0.367166 6.14313C0.611934 6.35542 0.906258 6.46154 1.25003 6.46154L12.7501 6.46154C13.0937 6.46154 13.388 6.35542 13.6328 6.14313C13.8777 5.93083 14 5.67592 14 5.3777L14 0C13.776 0.21664 13.5157 0.413187 13.2186 0.589237Z" transform="translate(0 4.307617)" id="Shape" fill="#B4D3D3" stroke="none" />
  </g>
</svg>