<?xml version="1.0" encoding="utf-8"?>
<svg width="17px" height="17px" viewBox="0 0 17 17" version="1.1" xmlns:xlink="http://www.w3.org/1999/xlink" xmlns="http://www.w3.org/2000/svg">
  <desc>Created with Lunacy</desc>
  <g id="002-instagram">
    <path d="M14.5098 0L2.49023 0C1.11723 0 0 1.11723 0 2.49023L0 14.5098C0 15.8828 1.11723 17 2.49023 17L14.5098 17C15.8828 17 17 15.8828 17 14.5098L17 2.49023C17 1.11723 15.8828 0 14.5098 0ZM12.0195 3.48633C12.0195 4.31018 12.6898 4.98047 13.5137 4.98047C14.3375 4.98047 15.0078 4.31018 15.0078 3.48633C15.0078 2.66248 14.3375 1.99219 13.5137 1.99219C12.6898 1.99219 12.0195 2.66248 12.0195 3.48633ZM8.5332 12.9492C6.06152 12.9492 4.05078 10.9385 4.05078 8.4668C4.05078 5.99511 6.06152 3.98438 8.5332 3.98438C11.0049 3.98438 13.0156 5.99511 13.0156 8.4668C13.0156 10.9385 11.0049 12.9492 8.5332 12.9492Z" id="Shape" fill="#F0F6F6" fill-rule="evenodd" stroke="none" />
    <path d="M0.5 0C0.224089 0 0 0.224089 0 0.5C0 0.775911 0.224089 1 0.5 1C0.775911 1 1 0.775911 1 0.5C1 0.224089 0.775911 0 0.5 0Z" transform="translate(13 3)" id="Shape" fill="#F1F7F7" stroke="none" />
    <path d="M3.5 0C1.57031 0 0 1.57031 0 3.5C0 5.42969 1.57031 7 3.5 7C5.42969 7 7 5.42969 7 3.5C7 1.57031 5.42969 0 3.5 0Z" transform="translate(5 5)" id="Shape" fill="#F0F6F6" stroke="none" />
  </g>
</svg>