<?xml version="1.0" encoding="utf-8"?>
<svg width="14px" height="56px" viewBox="0 0 14 56" version="1.1" xmlns:xlink="http://www.w3.org/1999/xlink" xmlns="http://www.w3.org/2000/svg">
  <desc>Created with Lunacy</desc>
  <g id="social">
    <g id="001-vkontakte-logo">
      <path d="M11.5391 0L2.46065 0C1.10177 0 0 1.10177 0 2.46094L0 11.5391C0 12.8979 1.10177 14 2.46065 14L11.5391 14C12.8979 14 14 12.8979 14 11.5391L14 2.46094C14 1.10177 12.8979 0 11.5391 0ZM4.51967 10.578L7.37975 10.578C9.12421 10.578 9.80846 9.48879 9.80846 8.484C9.80846 7.39827 9.21667 6.94823 8.38804 6.77702L8.38804 6.75675C8.94687 6.58977 9.38496 6.05237 9.38496 5.26765C9.38496 4.25133 8.54977 3.67515 7.64458 3.67515L4.51967 3.67515L4.51967 10.578ZM7.7229 5.62713C7.7229 5.85871 7.62577 6.11013 7.44056 6.25115C7.22795 6.41588 6.94247 6.41414 6.68727 6.41259L6.68709 6.41258C6.66175 6.41243 6.63672 6.41228 6.61208 6.41229L6.13244 6.41229L6.13244 4.90292L6.49498 4.90292C6.53443 4.90292 6.57719 4.90224 6.62211 4.90152C6.87676 4.89748 7.20132 4.89233 7.39185 5.0034C7.60608 5.13406 7.7229 5.37556 7.7229 5.62713ZM6.96471 7.58508C7.21817 7.58508 7.5301 7.58508 7.75454 7.71575C7.9784 7.84656 8.13415 8.15952 8.13415 8.42115C8.13415 8.70275 8.00742 8.9985 7.78356 9.14915C7.56262 9.30428 7.24577 9.3022 6.97785 9.30044C6.95009 9.30026 6.92286 9.30008 6.89631 9.30008L6.13244 9.30008L6.13244 7.58508L6.96471 7.58508Z" id="Shape" fill="#B4D3D3" fill-rule="evenodd" stroke="none" />
    </g>
    <g id="002-instagram" transform="translate(0 42)">
      <path d="M11.9492 0L2.05078 0C0.920074 0 0 0.920074 0 2.05078L0 11.9492C0 13.0799 0.920074 14 2.05078 14L11.9492 14C13.0799 14 14 13.0799 14 11.9492L14 2.05078C14 0.920074 13.0799 0 11.9492 0ZM9.89844 2.87109C9.89844 3.54956 10.4504 4.10156 11.1289 4.10156C11.8074 4.10156 12.3594 3.54956 12.3594 2.87109C12.3594 2.19263 11.8074 1.64063 11.1289 1.64063C10.4504 1.64063 9.89844 2.19263 9.89844 2.87109ZM7.02734 10.6641C4.99184 10.6641 3.33594 9.00816 3.33594 6.97266C3.33594 4.93715 4.99184 3.28125 7.02734 3.28125C9.06285 3.28125 10.7188 4.93715 10.7188 6.97266C10.7188 9.00816 9.06285 10.6641 7.02734 10.6641Z" id="Shape" fill="#B4D3D3" fill-rule="evenodd" stroke="none" />
      <path d="M0.538462 0C0.241326 0 0 0.241326 0 0.538462C0 0.835597 0.241326 1.07692 0.538462 1.07692C0.835597 1.07692 1.07692 0.835597 1.07692 0.538462C1.07692 0.241326 0.835597 0 0.538462 0Z" transform="translate(10.76929 2.153809)" id="Shape" fill="#B4D3D3" stroke="none" />
      <path d="M2.69231 0C1.20793 0 0 1.20793 0 2.69231C0 4.17668 1.20793 5.38462 2.69231 5.38462C4.17668 5.38462 5.38462 4.17668 5.38462 2.69231C5.38462 1.20793 4.17668 0 2.69231 0Z" transform="translate(4.307739 4.307617)" id="Shape" fill="#B4D3D3" stroke="none" />
    </g>
  </g>
</svg>